{"glyphs":{":":{"x_min":0,"x_max":293,"ha":293,"o":"m 212 62 q 212 24 199 10 q 187 -5 146 -5 l 142 -5 l 139 -5 l 132 -5 q 122 -3 121 -3 q 98 -3 90 9 q 81 21 81 42 l 80 55 l 80 76 q 80 115 94 129 q 107 143 144 143 l 155 143 q 187 143 199 133 q 211 123 211 96 l 212 83 z m 124 349 q 98 349 90 362 q 82 375 82 392 l 81 397 l 79 417 l 79 423 q 79 465 92 480 q 105 496 140 496 l 156 496 q 164 494 178 494 q 192 494 201 483 q 211 471 211 447 l 212 442 l 212 431 l 212 418 l 210 397 q 210 349 161 349 l 147 348 l 138 348 l 135 348 l 131 348 q 126 349 124 349 z"},"$":{"x_min":0,"x_max":584,"ha":584,"o":"m 397 166 l 397 179 l 397 182 l 397 186 q 396 191 396 193 q 396 216 372 240 q 349 263 339 263 l 336 263 q 331 263 331 257 l 331 237 l 332 235 l 332 230 l 332 226 l 332 221 l 333 219 l 333 210 l 333 206 l 333 189 l 333 183 l 333 162 l 333 157 l 333 141 l 333 139 l 333 130 l 332 125 l 332 119 l 331 107 l 331 91 q 331 85 335 85 l 340 85 q 358 85 378 112 q 397 139 397 166 z m 250 587 l 248 587 q 233 587 212 562 q 190 537 190 520 l 190 513 l 191 511 l 191 506 l 193 490 q 193 469 214 444 q 234 420 247 420 l 248 420 q 253 420 253 435 l 254 446 q 254 450 254 453 l 255 458 l 255 485 l 254 487 l 252 507 q 252 587 250 587 z m 500 210 l 500 194 q 500 134 471 99 q 443 63 401 43 q 394 40 362 29 q 331 19 322 11 q 313 4 309 -21 l 307 -35 q 304 -61 303 -63 q 297 -78 271 -78 q 245 -78 242 -46 q 239 -15 218 0 q 210 5 164 22 q 118 39 104 50 q 80 70 80 96 q 80 123 94 139 q 108 154 133 154 q 139 154 179 131 q 219 107 243 107 q 267 107 272 126 q 278 146 278 215 q 278 284 264 300 l 186 346 q 132 378 109 414 q 87 450 87 505 q 87 561 123 603 q 144 629 169 641 q 194 653 222 662 q 250 670 261 678 q 272 686 277 716 q 283 746 284 748 q 292 754 310 754 q 329 754 333 747 q 338 739 342 719 q 345 700 350 695 q 354 690 400 673 q 445 655 454 649 q 477 635 477 608 q 477 582 463 562 q 449 543 430 543 q 411 543 384 560 q 357 576 339 576 q 321 576 314 556 q 307 537 307 489 q 307 441 327 419 q 346 396 396 365 q 500 301 500 210 z"},"?":{"x_min":0,"x_max":500,"ha":500,"o":"m 156 78 q 156 102 172 112 q 188 122 230 122 l 233 122 l 244 121 l 259 120 q 306 120 306 69 l 306 55 l 305 53 l 305 49 q 304 45 304 42 q 304 0 255 0 q 250 -1 248 -1 l 237 -2 l 219 -2 q 204 0 198 0 q 156 0 156 38 q 155 42 155 44 l 154 53 l 154 67 q 156 73 156 78 z m 438 531 q 438 481 408 431 q 379 381 341 342 q 304 303 298 290 q 292 278 290 250 q 289 222 285 214 q 278 198 239 198 l 230 198 q 203 198 193 214 q 183 230 183 271 q 183 311 205 352 q 212 367 242 397 q 272 427 293 459 q 314 490 314 524 q 314 559 295 578 q 276 598 247 598 q 217 598 171 570 q 125 542 102 542 q 78 542 64 556 q 50 570 50 598 q 50 635 98 664 q 160 701 225 701 l 246 701 q 330 701 384 655 q 438 609 438 541 z"},"<":{"x_min":0,"x_max":602,"ha":602,"o":"m 504 42 q 487 42 440 71 q 435 74 268 160 q 101 245 94 250 q 66 267 66 300 q 66 333 107 357 q 175 397 245 429 q 314 460 449 532 q 485 551 497 551 l 503 551 q 509 551 509 510 q 509 469 481 449 q 454 429 333 366 q 212 304 211 294 q 211 287 325 231 q 439 176 476 150 q 513 124 513 63 q 513 42 504 42 z"},"'":{"x_min":0,"x_max":260,"ha":260,"o":"m 159 715 q 187 715 187 690 l 187 671 l 187 667 l 183 604 l 182 589 q 181 582 181 578 l 179 563 l 177 548 q 171 504 171 496 q 171 442 143 442 l 117 442 q 90 442 90 482 q 88 498 88 504 l 86 519 l 85 537 q 82 562 82 570 l 78 630 l 78 642 l 77 660 l 77 683 q 77 704 86 710 q 96 717 125 717 l 141 717 q 151 715 159 715 z"},"=":{"x_min":0,"x_max":596,"ha":596,"o":"m 548 218 l 548 183 q 548 163 510 163 l 445 163 l 439 164 l 269 164 l 251 163 l 105 163 q 73 163 65 167 q 58 171 58 200 l 58 225 q 58 246 78 249 q 82 249 307 249 l 489 250 l 513 250 q 537 250 542 244 q 548 238 548 218 z m 548 422 l 548 387 q 548 367 532 364 q 527 363 298 363 l 139 363 l 122 363 l 98 363 q 70 363 63 369 q 57 375 57 400 l 57 416 q 57 442 66 446 q 75 449 161 449 l 513 449 q 548 449 548 422 z"},"a":{"x_min":0,"x_max":524,"ha":524,"o":"m 209 83 l 222 83 q 264 83 293 116 q 322 149 322 184 l 324 197 l 325 207 l 326 220 l 326 229 q 326 240 311 240 l 309 240 q 264 240 217 209 q 171 178 171 138 l 171 125 q 171 108 182 95 q 193 83 209 83 z m 426 142 l 434 33 q 434 11 420 5 q 407 -1 376 -1 q 346 -1 334 10 q 331 13 323 22 q 314 32 312 32 q 309 32 291 21 q 245 -10 189 -10 q 72 -10 72 135 q 72 162 85 193 q 113 262 222 303 q 231 306 243 310 l 276 319 q 300 326 317 337 q 335 349 335 372 q 335 395 315 412 q 294 430 261 430 q 227 430 183 407 q 138 385 114 385 q 90 385 77 400 q 64 414 64 435 q 64 463 111 482 q 180 510 261 510 l 273 510 q 354 510 397 470 q 441 431 441 363 l 441 352 q 441 342 434 255 q 426 167 426 142 z"},"L":{"x_min":0,"x_max":521,"ha":521,"o":"m 452 0 l 433 0 l 422 0 l 401 1 l 380 2 l 359 4 l 349 4 q 328 5 251 5 q 174 5 149 10 q 98 19 89 41 q 83 56 83 364 l 83 398 l 83 580 l 83 603 q 83 621 82 635 l 81 656 l 79 677 l 79 688 q 79 707 126 707 q 174 707 185 699 q 197 691 201 675 q 205 658 205 403 q 205 147 214 134 q 236 104 385 104 q 455 104 474 91 q 493 78 493 29 l 493 19 q 493 0 452 0 z"},"3":{"x_min":0,"x_max":577,"ha":577,"o":"m 390 382 q 390 380 428 353 q 465 326 484 293 q 503 260 503 209 q 503 115 438 57 q 373 -1 256 -1 q 181 -1 123 22 q 64 46 64 79 l 64 90 q 64 106 78 119 q 91 132 113 132 q 136 132 184 115 q 232 99 264 99 q 321 99 351 129 q 382 160 382 205 q 382 251 349 281 q 330 299 308 305 q 286 311 258 315 q 231 320 225 323 q 204 333 204 361 q 204 389 217 399 q 222 403 243 411 q 349 449 349 529 q 349 558 330 576 q 312 594 276 594 q 241 594 201 581 l 188 576 q 136 557 129 557 q 105 557 93 569 q 81 581 81 600 q 81 636 146 665 q 211 694 295 694 l 311 694 q 386 694 429 653 q 472 612 472 547 q 472 479 416 418 q 390 390 390 382 z"},";":{"x_min":0,"x_max":298,"ha":298,"o":"m 144 141 l 166 141 q 193 141 207 132 q 213 128 213 105 l 213 89 q 213 87 213 86 q 213 -4 183 -55 q 127 -147 83 -147 l 79 -147 q 58 -147 58 -125 q 58 -119 70 -104 q 108 -54 108 -16 q 108 -7 102 2 q 96 12 92 20 q 88 29 88 69 q 88 109 100 125 q 112 141 144 141 z m 145 498 l 164 498 q 192 498 205 487 q 217 477 217 448 l 218 445 l 218 442 l 219 432 l 219 421 q 219 379 206 364 q 193 350 155 350 l 146 350 l 127 352 q 88 352 88 395 q 87 400 87 402 l 86 413 l 86 432 l 87 439 l 88 449 q 88 473 100 485 q 113 498 145 498 z"},"J":{"x_min":0,"x_max":463,"ha":463,"o":"m 375 223 q 375 109 317 46 q 292 19 253 4 q 214 -10 173 -10 l 162 -10 q 98 -10 47 18 q 17 35 17 76 q 17 98 29 112 q 42 126 61 126 q 80 126 116 118 q 152 109 172 109 q 192 109 211 128 q 229 147 238 175 q 256 227 256 342 q 256 457 244 523 q 231 590 231 634 q 231 678 249 692 q 267 706 328 706 l 337 706 q 363 706 369 688 q 383 646 383 587 l 383 566 l 377 437 l 377 404 l 377 313 l 376 279 q 376 268 376 257 l 376 246 q 375 234 375 223 z"},"V":{"x_min":0,"x_max":624,"ha":624,"o":"m 606 673 q 606 666 584 603 q 449 211 382 51 q 372 27 360 18 q 348 8 311 8 l 297 8 q 258 8 239 54 q 232 69 173 246 q 113 423 65 540 q 17 657 17 677 q 17 693 49 693 l 62 693 q 64 693 65 693 q 104 693 125 681 q 146 668 160 641 q 174 613 240 403 q 307 192 314 192 q 321 192 394 406 q 466 620 474 636 q 493 673 514 683 q 533 692 574 692 q 576 692 579 692 q 606 692 606 673 z"},"\"":{"x_min":0,"x_max":432,"ha":432,"o":"m 134 714 q 161 714 169 708 q 177 702 177 684 l 177 677 l 177 673 l 177 662 l 172 591 q 167 548 167 540 l 164 513 l 162 499 q 160 487 160 483 q 160 439 128 439 l 109 439 q 80 439 80 482 q 79 490 79 494 l 78 508 l 77 523 q 75 539 75 545 l 74 549 l 74 553 l 72 583 l 72 590 l 71 601 l 71 608 l 70 612 l 70 620 l 70 627 l 70 635 l 69 657 l 69 683 q 70 690 70 694 q 70 713 99 713 l 103 713 l 105 714 l 118 714 z m 339 713 q 366 713 366 688 l 366 669 l 366 665 l 363 625 l 362 606 l 361 602 l 360 580 q 358 565 358 562 l 352 506 q 352 473 344 456 q 336 439 316 439 l 294 439 q 269 439 269 486 l 267 501 l 266 520 l 265 534 q 264 541 264 545 l 263 549 l 263 553 l 259 623 l 259 634 l 258 653 l 258 679 q 258 699 265 707 q 273 714 304 714 l 320 714 q 330 713 339 713 z"},"7":{"x_min":0,"x_max":571,"ha":571,"o":"m 69 640 l 69 650 q 69 678 79 687 q 90 696 144 696 q 147 696 212 692 q 277 688 365 688 q 453 688 480 681 q 506 675 506 647 l 506 637 q 506 618 421 428 q 336 238 306 156 q 275 74 266 45 q 257 16 255 12 q 246 -11 203 -11 q 161 -11 151 -4 q 141 3 141 22 q 141 65 251 311 q 361 557 361 560 q 361 584 259 584 l 211 583 l 144 581 q 101 581 85 594 q 69 607 69 640 z"},"S":{"x_min":0,"x_max":568,"ha":568,"o":"m 465 319 q 515 266 515 186 q 515 106 452 54 q 423 30 380 15 q 337 0 290 0 l 273 0 q 179 0 104 35 q 49 61 49 101 q 49 125 62 140 q 76 155 116 155 q 116 155 117 155 q 128 155 148 142 q 219 99 276 99 q 277 99 277 98 q 278 98 279 98 q 335 98 364 123 q 394 148 394 189 q 394 230 351 262 q 329 279 240 320 q 152 362 116 398 q 66 449 66 525 q 66 601 125 651 q 185 702 284 702 l 301 702 q 378 702 437 676 q 497 650 497 612 q 497 592 481 576 q 465 561 438 561 q 429 561 380 582 q 331 604 289 604 q 247 604 218 583 q 188 563 188 527 q 188 491 233 459 q 239 456 334 406 q 430 357 465 319 z"},"}":{"x_min":0,"x_max":381,"ha":381,"o":"m 238 21 q 238 -56 210 -92 q 154 -164 81 -164 l 61 -164 q 43 -164 43 -150 l 43 -140 q 43 -112 62 -92 q 68 -85 93 -72 q 118 -60 131 -39 q 145 -19 145 36 l 144 48 q 141 117 141 124 q 142 188 155 215 q 169 241 197 264 q 224 286 224 289 l 193 315 q 167 337 155 364 q 142 391 142 471 l 143 484 l 144 509 q 145 534 145 562 q 145 590 133 609 q 121 627 93 644 q 64 661 59 669 q 44 689 44 717 q 44 736 66 736 l 86 736 q 154 736 206 673 q 240 630 240 547 l 238 497 q 236 459 236 425 q 236 391 250 371 q 263 352 272 346 q 282 340 297 334 q 313 327 317 323 q 331 311 331 288 q 331 265 325 257 q 319 249 304 242 l 283 233 q 263 222 249 198 q 236 175 236 109 l 236 97 q 237 83 238 64 q 238 46 238 21 z"},"Z":{"x_min":0,"x_max":589,"ha":589,"o":"m 547 19 q 547 -1 494 -1 l 479 -1 q 468 -1 449 0 l 418 2 q 387 4 355 5 l 338 6 l 221 5 q 99 5 73 13 q 47 20 47 46 q 47 83 78 133 q 83 141 227 358 q 371 574 371 584 q 371 603 240 603 q 109 603 84 616 q 60 629 60 672 q 60 695 72 700 q 83 705 116 705 l 130 705 q 137 704 188 701 q 239 698 370 698 q 500 698 519 692 q 537 685 537 655 q 537 625 517 592 q 497 559 453 494 q 410 430 311 282 q 212 134 212 118 q 212 103 347 103 q 482 103 509 93 q 547 81 547 33 z"},"x":{"x_min":0,"x_max":531,"ha":531,"o":"m 410 -3 q 369 -3 352 15 q 334 32 299 98 q 264 165 259 165 q 254 165 220 103 q 186 41 171 24 q 148 -3 99 -3 q 50 -3 50 5 q 50 14 121 134 q 192 253 192 260 q 191 267 127 378 q 62 490 62 504 q 62 515 117 515 q 171 515 187 499 q 203 483 234 426 q 266 368 270 368 q 275 368 307 424 q 338 480 354 498 q 371 516 398 516 l 409 516 q 465 516 465 506 q 465 496 402 394 q 339 291 339 265 q 339 262 409 143 q 479 23 480 10 q 480 -3 410 -3 z"},")":{"x_min":0,"x_max":358,"ha":358,"o":"m 283 301 l 283 279 q 283 211 268 138 q 235 -18 149 -125 q 118 -162 93 -162 q 52 -162 52 -135 q 52 -126 91 -61 q 130 4 148 60 q 181 162 181 285 q 181 474 104 611 q 102 616 77 654 q 51 691 51 704 q 51 735 96 735 q 120 735 161 681 q 202 627 229 563 q 283 436 283 301 z"},"&":{"x_min":0,"x_max":702,"ha":702,"o":"m 295 88 l 308 88 q 338 88 372 111 q 386 121 386 126 l 386 129 q 386 133 345 178 q 305 224 281 259 q 257 294 251 294 l 249 294 q 229 294 202 255 q 186 232 186 206 l 186 196 q 186 151 217 120 q 249 88 295 88 z m 274 535 l 275 524 q 275 500 300 459 q 308 448 312 448 l 315 448 q 333 448 364 497 q 380 523 380 550 l 380 555 l 379 557 l 378 575 q 378 583 365 598 q 353 614 333 614 l 327 614 q 309 614 292 597 q 275 580 275 559 l 273 545 l 273 537 z m 666 24 q 666 5 625 5 l 612 5 q 583 5 545 22 q 507 40 497 40 q 486 40 457 30 q 397 11 290 11 q 243 11 202 25 q 161 39 136 59 q 112 79 94 115 q 75 152 75 198 q 75 244 98 281 q 120 317 161 354 q 202 392 202 411 q 202 420 189 451 q 177 481 175 486 q 161 528 161 575 q 161 623 201 661 q 242 699 310 699 q 378 699 425 652 q 472 605 472 542 q 472 479 402 410 q 369 376 369 342 q 369 307 399 273 q 429 240 456 240 q 473 240 496 274 q 520 308 546 308 q 603 308 603 265 q 603 240 588 205 q 574 169 574 155 q 574 118 620 83 q 666 49 666 24 z"},"_":{"x_min":0,"x_max":530,"ha":530,"o":"m 530 -92 l 530 -129 q 530 -146 511 -146 l 60 -146 l 36 -146 q 8 -146 4 -141 q 0 -137 0 -117 l 0 -96 q 0 -79 31 -79 l 506 -79 q 530 -79 530 -92 z"},"v":{"x_min":0,"x_max":513,"ha":513,"o":"m 472 503 q 495 503 495 491 q 495 479 474 424 q 349 103 318 39 q 303 6 254 6 l 244 6 q 208 6 191 43 q 188 51 142 174 q 96 298 81 332 l 59 380 q 18 474 18 489 q 18 504 46 504 l 56 504 q 125 504 148 466 q 157 452 206 309 q 254 167 259 167 q 268 167 316 308 q 364 449 378 469 q 401 503 472 503 z"},"O":{"x_min":0,"x_max":715,"ha":715,"o":"m 213 365 l 213 326 q 213 224 257 153 q 276 123 302 107 q 328 92 352 92 l 358 92 q 422 92 464 162 q 506 233 506 350 l 506 357 l 505 365 q 505 473 466 540 q 426 606 367 606 l 361 606 q 297 606 255 536 q 213 465 213 365 z m 632 354 q 632 196 562 93 q 528 42 476 12 q 424 -18 370 -18 l 350 -18 q 235 -18 161 77 q 129 118 108 186 q 87 253 87 332 l 87 356 q 87 430 108 500 q 152 641 250 690 q 303 717 360 717 l 370 717 q 427 717 478 690 q 528 664 563 613 q 632 515 632 366 z"},"(":{"x_min":0,"x_max":358,"ha":358,"o":"m 265 -162 q 235 -162 195 -109 q 154 -55 127 9 q 72 139 72 271 l 72 303 q 72 305 72 307 q 72 355 85 427 q 112 579 200 689 q 236 735 264 735 l 272 735 q 308 735 308 702 q 308 692 271 633 q 182 491 182 281 q 182 81 271 -63 q 310 -124 310 -138 q 310 -162 265 -162 z"},"C":{"x_min":0,"x_max":633,"ha":633,"o":"m 371 5 l 356 5 q 219 5 136 92 q 54 178 54 342 q 54 506 137 601 q 220 697 366 697 l 381 697 q 471 697 524 668 q 577 639 577 593 q 577 582 561 564 q 546 547 525 547 q 519 547 493 558 l 470 568 q 410 595 361 595 q 275 595 229 526 q 181 457 181 342 q 181 228 230 167 q 280 104 355 104 q 396 104 462 133 q 527 161 538 161 q 549 161 565 147 q 581 133 581 120 l 581 108 q 581 70 517 38 q 452 5 371 5 z"},"W":{"x_min":0,"x_max":887,"ha":887,"o":"m 862 668 q 862 637 834 553 q 806 469 762 312 l 749 262 q 740 229 733 204 q 726 179 713 128 q 700 78 694 62 q 688 45 669 31 q 650 17 619 17 q 587 17 563 70 q 552 95 499 273 q 446 452 440 452 l 432 436 q 426 421 416 384 q 406 348 370 224 q 334 101 325 80 q 299 20 261 20 q 224 20 204 41 q 193 51 184 81 l 153 202 q 97 418 88 446 l 43 581 q 26 639 26 662 q 26 688 55 688 q 93 688 114 677 q 136 665 150 633 q 165 602 212 415 q 258 229 268 229 q 281 229 355 510 q 382 613 388 629 q 406 678 452 678 q 486 678 502 648 l 510 625 q 513 616 522 578 l 560 431 q 615 225 627 225 q 633 225 681 409 q 729 593 744 626 q 758 660 768 668 q 789 687 825 687 q 862 687 862 668 z"},"A":{"x_min":0,"x_max":652,"ha":652,"o":"m 341 260 q 383 260 383 265 l 383 267 q 383 273 357 377 q 332 481 327 508 q 323 535 323 535 q 322 535 319 516 q 316 498 298 424 q 279 350 275 326 q 271 303 264 286 q 256 269 256 267 l 256 262 q 256 256 270 256 l 274 256 l 308 260 z m 600 38 q 600 10 552 10 l 531 10 q 497 10 480 30 q 463 49 446 99 q 428 149 416 158 q 403 167 320 167 q 237 167 220 152 q 212 146 192 98 q 172 50 161 38 q 136 10 102 10 q 49 10 49 42 q 49 47 71 119 q 155 397 252 647 q 264 679 282 690 q 299 701 328 701 q 357 701 373 693 q 388 685 401 652 q 473 466 577 125 q 600 48 600 38 z"},"f":{"x_min":0,"x_max":367,"ha":367,"o":"m 308 435 q 308 419 278 402 q 248 385 241 369 q 226 335 226 256 l 225 233 q 224 210 224 199 l 223 153 l 223 130 q 223 38 216 19 q 208 -1 154 -1 l 134 -1 q 113 -1 110 12 q 106 26 106 182 q 106 339 101 363 q 95 386 72 405 q 48 423 48 434 l 48 443 q 48 478 82 507 q 97 520 101 528 q 105 537 115 594 q 126 651 149 680 q 196 736 300 736 q 373 736 373 703 q 373 676 361 657 q 349 638 324 638 q 296 641 280 641 q 264 641 246 623 q 228 604 228 568 q 228 532 268 501 q 308 470 308 435 z"},"Q":{"x_min":0,"x_max":722,"ha":722,"o":"m 351 93 l 362 93 q 390 93 481 227 q 509 267 509 343 l 509 383 q 509 471 471 535 q 434 600 373 600 l 366 600 q 334 600 305 579 q 275 558 255 522 q 215 451 215 353 l 215 327 q 215 177 296 116 q 326 93 351 93 z m 549 51 q 549 30 596 -10 q 643 -50 643 -75 q 643 -98 617 -98 q 614 -98 519 -81 q 423 -63 357 -40 q 291 -17 213 48 q 153 99 120 185 q 88 270 88 364 l 88 393 q 88 458 107 519 q 126 580 160 620 q 230 706 334 706 l 346 706 q 405 706 459 680 q 513 655 553 604 q 635 501 635 327 q 635 203 583 111 q 549 53 549 51 z"},"w":{"x_min":0,"x_max":747,"ha":747,"o":"m 725 486 l 725 475 q 725 458 693 377 q 662 296 628 182 q 593 67 586 49 q 579 31 561 21 q 542 12 530 12 l 514 12 q 484 12 462 63 q 455 79 417 195 q 379 312 375 312 q 366 312 330 195 q 294 78 280 50 q 260 12 218 12 q 177 12 160 50 q 159 53 122 172 q 86 291 54 378 q 21 466 21 486 q 21 502 47 502 q 115 502 140 460 q 154 438 188 313 q 222 188 234 188 q 246 188 285 327 q 325 465 331 474 q 345 497 380 497 q 415 497 427 475 q 433 465 473 325 q 512 186 524 186 q 532 186 568 311 q 604 437 619 463 q 641 500 696 500 q 725 500 725 486 z"},"-":{"x_min":0,"x_max":371,"ha":371,"o":"m 329 300 l 329 267 q 329 239 317 236 q 312 235 181 235 l 172 235 l 121 235 l 105 234 l 66 234 q 42 234 42 275 l 42 289 q 42 323 55 326 q 62 328 191 328 l 259 328 l 306 328 q 329 328 329 300 z"},"E":{"x_min":0,"x_max":560,"ha":560,"o":"m 85 76 l 85 91 q 85 99 87 123 l 94 217 q 101 329 101 385 q 101 441 94 517 q 86 592 86 624 q 86 656 98 667 q 110 677 154 688 q 197 698 357 698 l 442 699 q 484 699 493 689 q 502 679 502 653 q 502 626 450 616 q 418 610 358 606 l 245 600 q 229 594 218 567 q 207 540 207 493 q 207 446 237 438 q 260 431 334 427 q 407 424 420 419 q 440 411 440 353 q 440 322 411 313 q 403 311 321 303 q 239 295 229 291 q 206 280 206 232 q 206 150 228 120 q 242 102 329 102 q 416 102 463 89 q 510 77 510 46 q 510 15 486 9 q 473 6 336 6 l 285 5 q 126 5 95 39 q 85 48 85 76 z"},"s":{"x_min":0,"x_max":466,"ha":466,"o":"m 237 428 q 169 428 169 379 q 169 359 199 340 q 203 338 278 302 q 354 267 379 241 q 418 201 418 144 l 418 132 q 418 104 403 78 q 388 51 362 33 q 313 -2 237 -2 l 224 -2 q 141 -2 84 24 q 44 42 44 74 q 44 95 61 107 q 77 120 96 120 q 115 120 136 110 q 156 100 179 92 q 202 83 235 83 q 268 83 287 100 q 306 117 306 141 q 306 166 269 189 q 256 197 224 211 l 200 221 q 127 251 97 281 q 57 321 57 388 q 57 409 71 436 q 84 463 117 483 q 163 513 240 513 q 316 513 359 495 q 401 477 401 445 q 401 433 386 417 q 371 402 354 402 q 337 402 302 415 q 266 428 237 428 z"},">":{"x_min":0,"x_max":602,"ha":602,"o":"m 102 47 q 92 47 92 98 q 92 131 133 158 q 163 177 279 237 q 396 297 396 302 q 396 307 273 370 q 149 434 129 449 q 89 480 89 539 q 89 557 101 557 q 112 557 146 538 q 264 471 371 417 q 479 364 491 356 q 530 333 530 298 q 530 264 496 243 q 438 209 333 160 q 228 112 174 80 q 120 47 102 47 z"},"l":{"x_min":0,"x_max":290,"ha":290,"o":"m 146 734 l 169 734 q 192 734 196 692 l 196 458 l 197 387 l 197 360 l 198 351 q 198 342 198 333 l 200 253 q 200 209 211 152 q 221 94 221 65 l 221 57 q 221 11 214 4 q 208 -3 173 -3 l 142 -3 q 108 -3 100 5 q 92 14 87 47 q 82 81 82 258 l 82 536 l 80 598 l 77 641 l 76 666 q 74 682 74 683 l 74 699 q 74 721 86 728 q 98 734 146 734 z"},"8":{"x_min":0,"x_max":580,"ha":580,"o":"m 203 201 l 203 179 q 203 137 231 108 q 260 80 296 80 l 299 80 q 337 80 364 110 q 391 140 391 180 l 391 190 q 391 232 357 270 q 323 308 284 308 l 275 308 q 250 308 226 271 q 203 233 203 201 z m 375 512 l 375 527 q 375 559 356 584 q 336 609 309 609 l 304 610 l 293 610 q 263 610 241 584 q 219 559 219 526 l 219 517 q 219 480 246 448 q 274 417 306 417 l 308 417 q 330 417 352 449 q 375 481 375 512 z m 505 198 l 505 187 q 505 97 444 38 q 383 -21 293 -21 q 204 -21 146 31 q 88 83 88 170 l 88 182 q 88 279 168 344 q 183 355 183 357 q 183 359 158 387 q 132 414 120 443 q 107 472 107 517 q 107 602 162 655 q 218 708 292 708 l 303 708 q 387 708 437 659 q 486 610 486 535 q 486 493 471 460 q 456 426 444 412 q 433 398 421 387 q 409 376 409 372 q 408 367 423 356 q 458 331 481 291 q 505 251 505 198 z"},"\\":{"x_min":0,"x_max":418,"ha":418,"o":"m 68 731 q 101 731 117 695 q 133 658 213 446 q 293 234 322 156 q 351 78 375 17 q 398 -44 398 -54 q 398 -63 354 -63 l 347 -63 q 319 -63 298 -12 q 258 83 141 399 q 23 715 23 723 q 23 731 60 731 z"},"e":{"x_min":0,"x_max":529,"ha":529,"o":"m 353 332 l 353 339 l 353 341 q 353 375 328 397 q 303 418 270 418 l 268 417 l 260 417 q 252 416 250 416 q 226 416 200 387 q 175 357 175 327 l 175 325 q 175 318 194 318 l 208 318 l 211 318 l 332 322 l 340 323 q 353 323 353 332 z m 168 187 q 168 149 198 120 q 228 91 282 91 q 315 91 361 112 q 408 132 429 132 q 471 132 471 98 l 471 89 q 471 52 414 25 q 358 -2 288 -2 l 265 -2 q 169 -2 109 60 q 84 86 67 128 q 50 170 50 214 l 50 226 q 50 340 118 420 q 154 462 202 486 q 250 510 292 510 l 313 510 q 314 510 315 510 q 349 510 377 496 q 467 453 467 333 q 467 275 434 259 q 416 250 326 242 q 237 234 223 231 q 168 216 168 187 z"},"b":{"x_min":0,"x_max":560,"ha":560,"o":"m 375 245 l 375 275 q 375 335 351 374 q 328 413 293 413 l 289 413 q 256 413 232 382 q 208 351 208 299 q 207 291 207 286 l 206 267 l 206 225 q 206 152 223 119 q 239 86 276 86 l 287 86 q 322 86 348 133 q 375 179 375 245 z m 71 642 l 71 677 q 71 711 91 721 q 110 731 151 731 l 161 731 q 184 731 188 719 q 190 714 190 680 l 189 669 l 188 647 l 186 625 q 185 603 185 543 q 185 483 194 483 q 201 483 237 495 q 272 508 308 508 q 345 508 381 489 q 417 470 444 431 q 492 363 492 247 l 492 234 q 492 234 492 231 q 492 121 445 60 q 418 24 385 8 q 351 -9 323 -9 q 294 -9 258 6 q 221 21 215 21 q 209 21 195 14 q 180 6 160 6 q 116 6 101 30 q 94 42 94 143 l 92 237 q 92 274 82 428 q 71 582 71 642 z"},"%":{"x_min":0,"x_max":825,"ha":825,"o":"m 633 58 l 642 58 q 661 58 677 87 q 692 115 692 163 l 692 166 q 692 211 677 239 q 662 266 641 266 l 636 266 q 631 265 626 265 q 621 265 604 245 q 586 224 586 192 q 584 183 584 183 l 583 167 l 583 149 l 584 146 l 584 140 q 585 134 585 131 q 585 102 606 73 q 618 58 633 58 z m 222 624 l 213 624 q 200 624 183 604 q 165 583 165 552 l 164 546 l 163 521 l 163 516 q 163 471 179 445 q 195 419 213 419 l 218 419 q 237 419 253 444 q 269 469 269 497 l 270 509 l 270 516 l 271 525 l 271 528 l 270 531 l 270 537 l 269 549 q 269 580 252 602 q 236 624 222 624 z m 494 155 l 494 173 q 494 250 534 299 q 574 349 634 349 l 639 349 q 695 349 734 301 q 772 253 772 174 l 772 162 q 772 82 731 34 q 690 -14 632 -14 l 627 -13 q 573 -13 533 32 q 494 78 494 155 z m 680 687 q 680 680 667 658 q 486 345 281 28 q 251 -19 214 -19 q 176 -19 176 -7 q 176 -1 204 44 q 481 512 576 651 q 607 698 644 698 q 680 698 680 687 z m 360 541 l 360 523 q 360 447 321 392 q 282 336 220 336 l 215 336 q 161 336 120 384 q 78 432 78 513 l 78 537 q 78 606 118 655 q 158 704 210 704 l 225 704 q 285 704 322 657 q 360 610 360 541 z"},"m":{"x_min":0,"x_max":820,"ha":820,"o":"m 343 57 q 337 72 332 195 q 328 318 318 358 q 306 407 267 407 q 244 407 222 387 q 200 366 190 337 q 181 309 181 188 q 181 68 168 31 q 160 3 124 3 q 88 3 79 21 q 69 38 69 73 l 69 175 l 69 196 q 69 400 78 439 q 87 479 98 486 q 109 493 137 493 q 165 493 182 478 l 190 467 l 198 456 q 205 448 212 448 q 220 448 239 457 q 258 465 279 473 q 301 480 340 480 q 379 480 422 455 q 465 429 468 429 q 472 429 492 444 q 512 459 523 466 q 567 496 609 496 l 627 496 q 657 496 688 474 q 719 452 736 405 q 752 357 752 145 l 753 104 l 753 83 q 753 30 739 17 q 724 4 682 4 q 657 4 649 42 q 641 80 641 209 q 641 339 626 372 q 611 404 575 404 q 523 404 505 345 q 493 309 483 180 q 474 51 471 46 q 462 34 407 34 q 352 34 343 57 z"},"#":{"x_min":0,"x_max":600,"ha":600,"o":"m 265 404 q 251 376 251 335 l 237 278 l 237 276 l 237 274 q 237 272 245 272 l 253 272 l 255 273 l 272 274 l 295 276 q 300 277 302 277 l 317 279 q 319 280 323 280 q 327 280 336 297 q 345 315 345 347 l 346 356 q 346 363 353 384 q 360 405 360 407 l 360 411 q 360 417 326 417 l 322 417 l 316 417 l 305 416 l 291 414 q 286 413 278 413 q 270 413 265 404 z m 496 275 q 514 267 514 239 q 514 211 491 197 q 482 191 450 187 q 417 182 404 158 q 397 146 386 84 q 375 22 370 15 q 356 -2 313 -2 q 288 -2 288 17 q 288 29 300 85 q 312 140 312 162 q 312 181 246 181 q 227 181 223 174 q 218 167 215 142 q 203 35 187 12 q 175 -4 130 -4 q 106 -4 106 17 q 106 23 117 66 q 127 109 127 129 q 127 165 96 179 q 58 196 58 222 q 58 248 75 261 q 83 268 115 274 q 147 280 155 290 q 171 308 171 380 q 171 398 163 403 q 161 405 134 410 q 106 414 97 423 q 88 432 88 458 q 88 485 108 495 q 116 499 148 504 q 179 509 190 521 q 200 534 214 600 q 227 667 237 676 q 247 686 292 686 q 311 686 311 663 q 311 649 301 598 q 291 547 291 530 q 291 509 353 509 q 377 509 383 527 q 383 540 394 600 q 405 661 415 672 q 425 683 459 683 q 493 683 493 659 l 483 612 q 476 576 476 549 q 476 521 503 509 q 542 492 542 469 q 542 447 527 436 q 512 424 484 415 q 456 406 448 398 q 431 381 431 339 q 431 296 437 290 q 444 284 468 281 q 492 277 496 275 z"},",":{"x_min":0,"x_max":289,"ha":289,"o":"m 85 60 l 86 83 q 86 113 101 125 q 115 138 153 138 l 157 138 l 168 137 q 172 137 184 137 q 196 137 204 130 q 211 123 211 100 l 211 88 l 210 75 l 209 59 q 209 -11 177 -65 q 144 -120 120 -135 q 95 -151 82 -151 l 78 -151 q 56 -151 56 -130 l 56 -128 q 56 -125 76 -96 l 86 -79 q 106 -42 106 -18 q 106 -16 97 1 q 86 20 86 46 l 85 50 z"},"n":{"x_min":0,"x_max":560,"ha":560,"o":"m 471 14 l 447 14 q 400 14 390 34 q 380 54 375 180 q 371 306 361 344 q 351 382 336 399 q 320 417 295 417 q 270 417 245 401 q 220 385 209 361 q 185 309 185 181 q 185 53 172 34 q 159 15 88 15 q 61 15 61 47 l 61 165 q 61 175 67 256 q 73 337 73 382 l 73 395 q 74 408 74 437 q 74 465 85 479 q 97 494 133 494 q 170 494 181 485 q 191 477 197 465 q 203 452 206 452 q 209 452 231 466 q 252 480 276 491 q 299 502 335 502 l 348 502 q 391 502 423 479 q 454 456 470 420 q 501 348 501 103 l 501 43 q 501 14 471 14 z"},"h":{"x_min":0,"x_max":560,"ha":560,"o":"m 352 371 q 341 406 311 406 q 280 406 256 386 q 232 366 220 333 q 208 300 208 164 q 208 28 200 14 q 192 0 162 0 q 103 0 94 25 q 92 30 92 125 l 92 259 l 92 274 q 92 290 92 306 l 91 321 q 91 336 91 362 q 91 388 83 498 q 76 608 76 659 l 76 673 q 76 695 91 707 q 105 720 149 720 l 163 720 q 186 720 193 710 q 199 700 199 635 l 193 508 q 193 490 205 490 q 275 515 318 515 q 361 515 396 493 q 432 471 451 428 q 470 385 470 196 l 470 118 l 475 30 q 475 0 427 0 q 379 0 367 26 q 356 52 356 204 q 356 355 352 371 z"},"z":{"x_min":0,"x_max":492,"ha":492,"o":"m 451 24 q 451 7 442 2 q 434 -2 413 -2 q 393 -2 377 -1 l 353 0 q 293 4 188 4 q 83 4 66 7 q 40 12 40 30 q 40 65 60 98 l 173 251 q 281 398 281 409 q 281 419 187 419 q 92 419 72 432 q 52 444 52 486 q 52 503 61 508 q 70 514 103 514 l 114 514 q 120 514 169 511 q 218 508 315 508 q 413 508 422 505 q 441 500 441 472 q 441 444 416 406 q 391 368 296 244 q 202 121 202 107 q 202 93 306 93 q 411 93 431 80 q 451 67 451 24 z"},"B":{"x_min":0,"x_max":623,"ha":623,"o":"m 261 103 l 294 103 q 356 103 393 130 q 429 157 429 205 l 429 209 q 429 254 395 280 q 361 305 300 305 l 277 305 q 237 305 229 297 q 222 288 222 251 l 222 244 l 222 241 l 222 170 l 222 156 l 222 152 q 222 118 228 110 q 233 103 261 103 z m 403 502 l 403 520 q 403 554 374 574 q 344 595 304 595 l 270 595 q 233 595 228 583 q 222 570 222 531 l 222 474 l 221 464 q 221 430 227 422 q 232 414 255 414 l 285 414 q 335 414 369 437 q 403 461 403 502 z m 312 702 q 457 702 499 605 q 515 568 515 527 q 515 456 468 404 q 438 371 438 369 q 438 368 470 345 q 545 292 545 192 q 545 146 526 105 q 491 29 408 6 q 361 -7 294 -7 l 222 -7 q 140 -7 120 11 q 109 21 109 125 q 109 137 109 148 l 109 172 l 107 230 q 107 230 106 254 q 104 277 104 288 q 104 298 102 321 l 101 343 l 100 354 l 100 365 l 101 376 l 104 422 q 104 422 105 462 q 107 502 107 587 q 107 673 113 681 q 125 699 190 699 l 250 701 l 271 702 z"},"K":{"x_min":0,"x_max":636,"ha":636,"o":"m 233 436 q 252 436 335 552 q 418 667 428 676 q 456 701 498 701 q 539 701 539 687 q 539 677 444 549 q 348 420 348 391 q 348 375 465 192 q 581 10 581 9 q 581 0 549 0 l 534 0 q 473 0 437 37 q 421 53 353 165 q 286 276 265 276 q 227 276 227 167 l 231 67 q 231 29 222 14 q 213 0 189 0 q 121 0 110 28 q 92 75 92 381 l 92 417 q 92 634 108 679 q 117 704 174 704 q 212 704 220 691 q 229 678 229 634 l 223 461 q 223 436 233 436 z"},"R":{"x_min":0,"x_max":624,"ha":624,"o":"m 410 493 l 410 500 q 410 544 380 569 q 350 593 303 593 l 271 593 q 236 593 229 580 q 222 567 222 521 l 222 447 l 222 437 l 222 416 q 222 387 260 387 l 264 387 l 268 387 l 286 388 l 300 389 q 340 389 375 417 q 410 445 410 493 z m 124 689 q 145 704 267 704 l 318 704 q 469 704 510 584 q 522 551 522 500 q 522 414 450 349 q 415 316 415 296 q 415 287 489 149 l 509 110 q 526 79 546 45 q 565 12 565 9 q 565 -1 513 -1 q 460 -1 440 20 q 428 32 384 118 q 340 205 317 239 q 294 272 267 272 q 240 272 233 254 q 229 243 229 172 l 231 59 q 231 25 224 10 q 218 -4 192 -4 l 167 -4 q 120 -4 112 15 q 108 25 108 101 l 102 318 l 102 333 l 103 347 q 103 361 103 375 l 104 389 q 109 467 109 573 q 109 678 124 689 z"},"T":{"x_min":0,"x_max":566,"ha":566,"o":"m 446 706 q 512 706 512 669 l 512 658 q 512 612 485 601 q 474 596 419 590 q 364 584 353 565 q 343 545 343 282 q 343 19 341 14 q 337 -2 292 -2 l 260 -2 q 227 -2 224 19 q 222 31 222 286 q 222 542 211 562 q 201 582 146 588 q 92 593 78 602 q 55 615 55 653 l 55 664 q 55 692 85 698 q 116 705 297 705 l 425 706 z"},"P":{"x_min":0,"x_max":588,"ha":588,"o":"m 398 483 l 398 496 q 398 541 371 568 q 343 596 310 596 l 303 597 l 292 597 l 275 597 q 238 597 230 581 q 226 571 226 519 l 226 449 l 226 445 l 226 412 l 225 397 l 225 390 q 225 368 256 368 l 281 368 q 292 369 298 369 q 341 369 370 404 q 398 438 398 483 z m 149 -5 l 120 -5 q 80 -5 80 22 l 81 53 l 82 74 l 82 96 l 82 118 q 82 118 82 235 q 82 318 103 619 q 105 656 113 666 q 121 677 142 682 q 214 699 340 699 l 350 699 q 429 699 479 653 q 529 607 529 530 q 529 430 472 361 q 438 320 398 302 q 357 284 296 272 q 235 261 227 256 q 204 241 204 158 l 204 147 q 203 136 203 126 l 203 104 l 203 82 q 203 24 195 10 q 187 -5 149 -5 z"},"|":{"x_min":0,"x_max":335,"ha":335,"o":"m 147 746 l 183 746 q 203 746 209 741 q 216 737 216 709 l 216 689 l 215 679 l 215 617 l 215 586 l 215 -33 l 215 -53 l 215 -104 l 216 -136 q 216 -166 211 -172 q 207 -178 180 -178 l 162 -178 q 133 -178 127 -173 q 120 -169 120 -143 l 120 -90 l 120 -69 l 120 673 l 119 704 q 119 732 124 739 q 129 746 147 746 z"},"t":{"x_min":0,"x_max":378,"ha":378,"o":"m 260 -3 l 240 -3 q 207 -3 178 13 q 149 29 133 56 q 109 96 109 228 q 109 359 102 382 q 95 404 69 421 q 43 438 43 465 q 43 492 49 498 q 54 504 77 512 q 99 521 104 533 q 109 545 114 585 q 119 625 129 640 q 139 655 163 655 l 171 655 q 203 655 211 644 q 219 632 225 594 q 231 556 241 542 q 251 529 281 517 q 311 505 312 504 q 320 495 320 467 q 320 438 289 426 q 249 412 238 387 q 224 353 224 252 q 224 151 237 130 q 250 108 271 103 q 308 93 311 89 q 328 72 328 46 q 328 21 318 13 q 299 -3 260 -3 z"},"M":{"x_min":0,"x_max":827,"ha":827,"o":"m 761 92 q 761 24 717 24 q 693 24 673 44 q 652 63 643 102 q 633 141 629 298 q 624 455 606 455 q 598 455 558 353 q 519 250 501 204 l 484 157 q 472 122 467 111 l 457 90 q 439 63 406 63 q 374 63 354 101 l 301 237 q 222 451 207 451 q 192 451 186 291 q 180 130 170 93 q 160 55 143 41 q 126 27 107 27 q 65 27 65 111 l 65 131 q 65 159 71 219 l 74 242 q 76 266 78 289 l 80 313 l 87 514 q 91 618 95 634 q 104 668 127 679 q 140 685 161 685 q 216 685 259 615 q 274 591 341 426 q 407 260 417 260 l 427 277 q 432 288 453 345 l 489 438 q 546 583 568 621 q 606 683 657 683 q 693 683 709 671 q 725 659 729 637 q 734 615 738 493 q 742 371 746 316 l 754 222 q 761 155 761 133 z"},"g":{"x_min":0,"x_max":550,"ha":550,"o":"m 259 111 l 266 111 q 307 111 331 159 q 351 198 351 269 l 351 283 q 351 418 277 418 l 270 418 q 229 418 205 371 q 182 323 182 257 l 182 252 q 182 188 203 150 q 224 111 259 111 z m 471 -6 q 471 -94 412 -148 q 354 -202 257 -202 q 188 -202 121 -170 q 73 -147 73 -111 q 73 -78 121 -78 q 139 -78 184 -92 q 228 -105 258 -105 q 309 -105 337 -71 q 365 -36 365 27 q 365 42 355 42 q 353 42 339 33 q 302 9 257 9 q 173 9 121 81 q 95 116 81 165 q 67 213 67 254 l 67 286 q 67 447 166 499 q 201 517 236 517 l 249 517 q 271 517 307 501 q 343 486 348 486 q 354 486 363 497 q 373 507 394 507 q 445 507 458 488 q 463 479 463 424 l 461 353 l 461 310 l 461 235 q 461 181 463 144 l 471 21 z"},"j":{"x_min":0,"x_max":289,"ha":289,"o":"m 206 295 l 206 19 q 206 -93 170 -143 q 125 -206 49 -206 l 40 -206 q 8 -206 -14 -194 q -27 -187 -27 -170 l -27 -162 q -27 -127 -10 -112 q 0 -104 26 -98 q 52 -91 59 -87 q 76 -78 84 -51 q 93 -24 93 139 q 93 303 92 322 q 91 341 85 392 q 79 443 79 469 q 79 495 93 500 q 114 508 155 508 l 171 508 q 194 508 198 484 q 206 431 206 295 z m 146 713 l 153 713 q 187 713 204 703 q 221 693 221 670 l 223 660 l 223 645 q 223 596 177 596 q 169 595 167 595 l 154 594 l 139 594 l 122 596 q 74 596 74 648 l 74 660 l 76 674 q 76 713 146 713 z"},"i":{"x_min":0,"x_max":280,"ha":280,"o":"m 204 74 q 204 13 198 4 q 191 -5 163 -5 l 122 -5 q 89 -5 83 3 q 78 11 78 71 l 79 96 l 81 128 l 82 140 q 83 152 83 159 l 83 172 l 84 185 l 84 372 l 83 391 q 83 397 83 403 l 76 471 l 76 477 q 76 497 87 503 q 98 509 148 509 l 176 509 q 193 509 197 486 q 198 480 198 387 l 198 228 l 198 208 l 204 100 z m 69 675 q 69 712 123 712 l 133 713 l 151 713 q 158 712 175 712 q 191 712 202 701 q 213 690 213 676 l 214 674 l 215 670 l 216 659 l 216 648 l 214 633 q 214 597 170 597 q 165 596 163 596 l 148 595 l 135 595 l 115 597 q 67 597 67 647 l 67 660 z"},"y":{"x_min":0,"x_max":519,"ha":519,"o":"m 269 196 q 275 196 311 316 q 348 436 359 461 q 370 487 381 500 q 393 512 418 512 l 429 512 q 470 512 470 499 l 470 490 q 470 481 378 210 q 286 -61 281 -69 q 252 -125 205 -167 q 176 -192 139 -192 q 74 -192 74 -157 q 74 -130 96 -108 q 102 -103 131 -87 q 198 -51 198 42 q 198 68 126 264 q 54 460 54 479 l 54 489 q 54 512 99 512 l 110 512 q 150 512 171 479 q 180 465 223 330 q 266 196 269 196 z"},"@":{"x_min":0,"x_max":839,"ha":839,"o":"m 495 366 q 495 408 462 408 l 454 408 q 438 408 414 395 q 391 382 373 352 q 341 296 341 235 l 341 231 q 341 196 353 173 q 366 150 388 150 l 391 151 l 394 151 q 429 151 461 210 q 493 270 493 332 q 494 338 494 342 l 495 356 z m 777 381 l 777 351 q 777 314 763 265 q 750 215 724 181 q 699 147 667 130 q 635 112 579 112 l 556 117 l 518 132 q 504 132 465 117 q 425 102 380 102 q 334 102 297 142 q 259 182 259 250 q 259 281 276 323 q 293 364 323 388 q 353 413 379 418 q 405 423 473 423 l 494 426 q 528 432 531 432 q 561 432 571 411 q 581 390 581 328 l 580 305 q 579 271 579 260 q 579 223 593 208 l 605 201 q 639 201 668 244 q 697 287 697 348 q 697 474 616 546 q 585 573 544 589 q 502 604 435 604 q 368 604 309 571 q 250 539 215 496 q 142 406 142 280 q 142 206 167 146 q 218 30 322 -10 q 375 -30 437 -30 q 500 -30 561 -8 l 602 6 q 642 6 642 -15 l 637 -28 q 620 -49 560 -67 q 501 -85 420 -85 q 339 -85 271 -55 q 138 4 86 147 q 63 212 63 288 q 63 364 93 442 q 123 519 181 573 q 239 627 307 653 q 375 678 453 678 q 453 678 456 678 q 531 678 590 652 q 707 601 752 495 q 777 437 777 381 z"},".":{"x_min":0,"x_max":285,"ha":285,"o":"m 75 69 q 75 107 87 124 q 99 141 137 141 l 153 141 q 161 139 167 139 q 208 139 208 97 q 209 92 209 90 l 210 79 l 210 61 l 208 43 q 208 -6 158 -6 l 144 -8 l 132 -8 l 116 -6 q 94 -6 85 6 q 77 18 77 41 l 76 45 l 75 56 z"},"p":{"x_min":0,"x_max":564,"ha":564,"o":"m 208 219 q 208 153 227 121 q 246 90 287 90 l 290 90 q 330 90 354 139 q 379 188 379 257 l 379 262 q 379 326 357 370 q 335 414 299 414 l 289 414 q 254 414 227 371 q 209 342 209 293 q 208 284 208 279 l 208 261 z m 93 379 q 93 472 97 481 q 105 504 165 504 q 191 504 199 495 q 207 486 210 477 q 214 468 216 468 q 218 468 235 480 q 287 517 330 517 l 340 517 q 373 517 404 499 q 436 481 458 451 q 497 400 497 292 l 497 266 q 497 209 480 159 q 447 56 375 17 q 336 -4 302 -4 q 268 -4 236 5 q 204 14 201 14 q 187 14 187 -35 q 187 -83 189 -124 q 192 -164 192 -169 q 192 -201 152 -201 l 142 -201 q 95 -201 83 -191 q 71 -182 71 -141 l 71 -118 l 72 -106 l 74 -29 q 74 -21 78 36 l 83 102 l 83 113 q 91 225 91 261 l 93 319 l 93 343 z"},"X":{"x_min":0,"x_max":625,"ha":625,"o":"m 566 16 q 566 -2 493 -2 q 445 -2 423 28 q 412 44 361 144 q 311 244 303 244 q 302 244 254 151 q 206 57 185 27 q 165 -2 134 -2 l 104 -2 q 58 -2 58 8 q 58 14 148 183 q 238 351 238 360 q 238 369 156 523 q 73 678 73 692 q 73 707 136 707 l 151 707 q 189 707 207 684 q 226 662 271 572 q 315 482 323 482 q 325 482 368 567 q 411 651 431 679 q 452 706 503 706 q 554 706 554 699 q 554 689 471 536 q 389 384 389 376 q 389 369 478 194 q 566 20 566 16 z"},"*":{"x_min":0,"x_max":462,"ha":462,"o":"m 194 684 q 194 706 236 706 q 264 706 269 696 q 275 686 275 651 l 267 592 q 267 587 273 587 q 276 587 302 601 q 329 616 342 616 q 383 616 383 588 l 383 581 q 383 540 349 525 q 323 514 323 498 q 323 487 334 470 q 346 452 346 414 q 346 397 318 397 q 304 397 290 400 q 283 400 279 395 q 275 390 271 388 q 267 387 263 385 q 260 382 255 382 q 250 382 243 384 l 229 388 q 224 388 215 385 l 203 380 l 199 380 q 189 380 182 391 q 176 403 165 403 q 155 404 139 404 q 106 404 106 443 q 106 464 113 474 l 125 487 q 130 493 133 501 q 135 508 139 514 q 143 520 143 522 q 143 523 126 532 q 109 540 105 545 q 84 572 84 594 q 84 626 110 626 q 119 626 153 610 q 187 593 195 593 q 199 593 199 602 l 196 658 q 194 675 194 684 z"},"Y":{"x_min":0,"x_max":612,"ha":612,"o":"m 557 693 q 557 674 474 509 q 391 343 379 306 q 366 269 366 146 q 366 22 360 10 q 354 -3 315 -3 l 292 -3 q 251 -3 247 10 q 245 14 245 143 q 245 271 239 291 q 232 311 144 491 q 56 672 56 682 l 56 691 q 56 707 97 707 l 120 707 q 163 707 182 680 q 202 654 256 539 q 310 423 316 423 q 317 423 362 525 q 407 627 435 667 q 462 706 510 706 q 557 706 557 693 z"},"c":{"x_min":0,"x_max":492,"ha":492,"o":"m 447 86 q 447 49 396 26 q 346 3 287 3 q 169 3 108 68 q 48 133 48 242 l 48 253 q 48 372 114 439 q 180 507 293 507 l 304 507 q 363 507 402 488 q 440 468 440 442 q 440 417 423 401 q 405 384 390 384 q 375 384 338 401 q 301 418 268 418 q 224 418 194 373 q 165 327 165 254 q 165 180 197 139 q 229 97 279 97 q 308 97 350 115 q 393 134 407 134 q 422 134 434 120 q 447 106 447 86 z"},"!":{"x_min":0,"x_max":319,"ha":319,"o":"m 156 134 l 161 134 q 205 134 205 106 q 206 99 206 97 l 207 92 l 208 68 l 208 44 q 208 11 201 0 q 193 -12 166 -12 l 161 -12 q 133 -12 123 0 q 113 12 113 56 l 113 69 l 113 72 l 113 77 l 114 82 l 114 87 l 116 104 q 116 134 156 134 z m 152 709 l 174 709 q 207 709 215 699 q 224 689 224 655 l 224 624 l 223 618 q 223 608 223 599 l 223 586 l 223 574 l 219 482 q 218 476 218 470 l 217 457 l 216 420 q 215 408 215 401 l 214 389 l 212 345 q 211 333 211 327 l 210 314 q 209 308 209 301 l 208 289 l 208 271 q 208 229 201 214 q 193 200 170 200 l 149 200 q 130 200 122 213 q 113 228 113 286 l 112 298 l 110 342 l 109 367 q 108 379 108 385 l 107 404 l 105 454 l 104 472 q 104 479 104 484 l 100 621 l 100 670 q 100 694 112 702 q 124 709 152 709 z"},"/":{"x_min":0,"x_max":423,"ha":423,"o":"m 401 722 q 401 720 378 655 q 196 151 114 -46 q 103 -73 60 -73 q 17 -73 17 -62 q 17 -32 301 699 q 315 734 358 734 q 401 734 401 722 z"},"[":{"x_min":0,"x_max":358,"ha":358,"o":"m 241 -156 l 198 -156 q 119 -156 103 -136 q 87 -116 87 -28 l 87 624 q 87 704 115 719 q 142 734 249 734 l 271 734 q 311 734 311 708 q 311 673 299 664 q 287 654 245 648 q 204 643 197 624 q 189 605 189 294 q 189 -17 196 -39 q 203 -62 232 -67 q 288 -78 293 -81 q 311 -92 311 -125 l 311 -137 q 311 -156 241 -156 z"},"6":{"x_min":0,"x_max":581,"ha":581,"o":"m 208 224 l 208 216 q 208 160 235 122 q 263 84 299 84 l 302 84 q 337 84 364 121 q 391 158 391 212 l 391 225 q 389 238 389 246 q 389 284 357 322 q 336 348 305 348 l 298 348 l 295 347 q 254 347 231 312 q 208 277 208 224 z m 384 409 q 460 374 492 293 q 510 245 510 196 l 510 184 q 510 145 496 105 q 481 65 456 40 q 406 -11 329 -11 l 317 -11 q 266 -11 218 16 q 130 65 95 170 q 70 245 70 320 l 70 333 q 70 396 92 461 q 135 592 248 648 q 317 683 373 683 q 430 683 447 674 q 465 665 465 646 q 465 626 451 620 q 438 614 377 600 q 273 575 230 500 q 217 476 217 453 q 217 423 252 423 q 289 427 318 427 q 347 427 384 409 z"},"r":{"x_min":0,"x_max":400,"ha":400,"o":"m 73 383 q 73 383 74 435 q 74 474 88 487 q 101 500 151 500 q 201 500 209 483 q 217 466 220 466 q 224 466 257 486 q 290 506 317 506 q 344 506 359 495 q 374 484 374 469 l 374 462 q 374 426 354 405 q 342 394 302 394 q 262 394 240 381 q 219 367 204 329 q 188 292 188 161 q 188 30 181 17 q 171 -1 104 -1 l 97 -1 q 71 -1 71 18 l 71 33 l 72 58 q 73 74 73 91 l 73 294 l 73 312 q 73 325 73 338 l 73 356 z"},"2":{"x_min":0,"x_max":575,"ha":575,"o":"m 454 0 l 440 0 q 426 0 372 3 q 318 7 220 7 q 121 7 101 11 q 71 18 71 38 q 71 83 108 133 q 144 184 229 272 q 313 360 343 406 q 372 451 372 493 q 372 535 351 562 q 329 590 287 590 q 246 590 187 554 q 128 518 109 518 q 66 518 66 558 q 66 586 81 606 q 96 626 131 647 q 208 694 297 694 q 386 694 439 644 q 493 593 493 517 q 493 440 445 370 q 414 324 325 235 q 237 146 237 125 q 237 106 335 106 q 434 106 470 95 q 505 83 505 57 l 505 45 q 505 18 493 9 q 480 0 454 0 z"},"{":{"x_min":0,"x_max":381,"ha":381,"o":"m 341 -146 q 341 -165 315 -165 q 266 -165 236 -154 q 206 -143 181 -116 q 156 -90 146 -58 q 136 -27 136 27 l 138 78 q 140 116 140 129 q 140 184 124 207 q 108 230 84 239 q 60 247 57 250 q 44 261 44 286 q 44 311 50 319 q 55 326 73 333 q 90 340 91 340 q 112 351 126 373 q 140 396 140 461 l 136 563 q 136 645 185 691 q 233 736 311 736 l 322 736 q 342 736 342 708 q 342 681 325 665 q 319 659 291 645 q 262 631 251 608 q 239 585 239 527 l 241 490 q 242 453 242 439 q 242 386 228 359 q 213 333 187 310 q 161 288 161 286 q 161 286 173 277 q 208 252 225 221 q 242 189 242 112 l 239 25 q 239 -21 250 -39 q 262 -57 292 -72 q 322 -87 332 -101 q 341 -115 341 -146 z"},"9":{"x_min":0,"x_max":580,"ha":580,"o":"m 198 486 l 198 460 q 198 415 224 379 q 250 344 288 344 l 291 344 q 328 344 354 373 q 380 402 380 455 l 380 476 q 380 521 355 563 q 330 606 294 606 l 281 606 q 253 606 226 573 q 198 540 198 486 z m 516 384 l 516 347 q 516 285 490 219 q 439 86 331 37 q 266 8 210 8 l 199 8 q 147 8 131 19 q 114 30 114 50 q 114 70 192 88 q 270 106 304 133 q 367 182 367 236 q 367 262 315 262 q 263 262 225 274 q 187 287 154 319 q 120 350 100 396 q 80 442 80 492 l 80 504 q 80 591 130 646 q 180 702 256 702 l 268 702 q 374 702 447 607 q 477 567 496 505 q 516 442 516 384 z"}," ":{"x_min":0,"x_max":297,"ha":297,"o":""},"I":{"x_min":0,"x_max":318,"ha":318,"o":"m 143 706 l 175 706 q 212 706 220 702 q 237 691 237 647 l 237 639 q 237 611 229 570 q 221 528 220 509 q 219 490 219 342 q 219 193 221 176 q 222 159 229 128 q 236 96 236 57 q 236 18 227 8 q 217 -2 192 -2 l 136 -2 q 102 -2 95 6 q 82 21 82 60 q 82 99 90 144 q 98 188 98 205 q 98 205 98 391 q 98 498 97 521 q 96 544 89 576 q 82 607 82 638 l 82 647 l 82 656 q 82 686 93 696 q 103 706 143 706 z"},"H":{"x_min":0,"x_max":680,"ha":680,"o":"m 508 18 q 466 18 457 54 q 450 81 450 189 q 450 297 435 312 q 420 326 333 326 q 247 326 223 304 q 209 292 209 165 q 209 39 195 22 q 180 5 137 5 q 94 5 87 15 q 81 25 81 45 l 81 62 q 81 67 84 149 l 86 202 q 89 246 89 433 q 89 620 94 646 q 99 671 110 680 q 120 688 164 688 q 208 688 219 670 q 229 651 229 539 q 229 427 242 414 q 255 401 346 401 q 436 401 457 421 q 469 434 469 551 q 469 667 486 682 q 502 697 561 697 q 588 697 595 680 q 599 671 599 634 l 599 618 l 598 584 q 598 559 595 497 q 591 436 591 318 l 590 172 q 590 51 579 35 q 569 18 508 18 z"},"4":{"x_min":0,"x_max":584,"ha":584,"o":"m 170 269 l 170 268 q 170 264 184 264 l 203 264 l 206 264 l 285 267 q 288 268 292 268 q 325 268 325 297 q 326 308 326 312 l 327 327 l 327 334 l 329 360 l 329 368 l 329 375 q 329 379 329 383 l 330 397 l 330 405 l 331 424 l 331 431 l 332 435 l 332 442 l 334 484 l 334 491 l 335 506 l 335 521 l 334 522 l 333 522 l 322 505 q 317 497 315 494 l 250 387 q 249 385 231 357 q 214 330 192 300 q 170 271 170 269 z m 506 255 q 518 241 518 195 l 518 187 q 518 169 491 162 q 464 154 458 146 q 453 138 453 98 l 456 35 q 456 9 440 1 q 424 -7 386 -7 q 348 -7 343 0 q 338 7 338 20 q 338 33 339 47 l 340 68 q 341 88 341 115 q 341 141 324 148 q 307 156 211 156 q 115 156 92 169 q 69 183 69 226 l 69 236 q 69 263 88 294 q 260 579 315 659 q 344 700 381 700 l 400 700 q 434 700 443 691 q 453 682 453 656 l 444 456 q 442 399 442 351 q 442 303 448 291 q 454 279 478 269 q 503 259 506 255 z"},"~":{"x_min":0,"x_max":589,"ha":589,"o":"m 181 414 l 200 414 q 236 414 306 374 q 376 335 402 335 q 427 335 455 370 q 482 404 498 404 q 523 404 532 395 q 541 385 541 366 l 541 360 q 541 321 496 283 q 450 244 409 244 l 396 244 q 354 244 286 284 q 218 324 192 324 q 166 324 135 289 q 103 253 85 253 q 47 253 47 293 q 47 333 93 373 q 138 414 181 414 z"},"D":{"x_min":0,"x_max":676,"ha":676,"o":"m 471 340 l 471 371 q 471 467 425 530 q 380 594 306 594 l 288 594 q 237 594 233 572 q 232 566 232 540 l 232 507 l 233 494 q 233 487 233 480 l 233 460 l 233 420 l 234 406 l 234 297 l 233 277 l 233 250 l 233 230 q 233 223 233 216 l 232 203 l 232 189 l 232 176 l 232 163 l 231 143 l 231 137 q 231 105 281 105 l 293 105 l 299 105 q 373 105 422 171 q 443 199 457 246 q 471 293 471 340 z m 598 353 q 598 185 503 80 q 425 -6 270 -6 l 210 -6 q 149 -6 128 2 q 106 11 106 44 l 108 88 q 110 133 110 145 l 111 167 q 111 178 111 190 l 112 224 q 112 235 112 247 l 113 292 l 113 418 l 113 452 l 113 475 l 112 498 l 111 520 q 110 542 110 554 l 108 610 q 106 644 106 666 q 106 688 126 695 q 146 702 240 702 l 279 703 l 289 703 q 363 703 415 685 q 466 666 507 624 q 548 581 573 515 q 598 449 598 366 z"},"^":{"x_min":0,"x_max":567,"ha":567,"o":"m 106 351 l 66 351 q 52 351 52 357 q 52 368 85 423 q 119 477 173 575 q 227 673 234 683 q 249 704 285 704 q 320 704 340 674 q 398 587 496 399 q 514 363 514 360 l 514 356 q 514 351 481 351 q 425 351 401 383 q 390 397 340 495 q 289 593 284 593 q 277 593 228 498 q 179 403 160 377 q 141 351 106 351 z"},"0":{"x_min":0,"x_max":583,"ha":583,"o":"m 392 374 l 391 410 q 391 488 364 545 q 337 602 296 602 q 255 602 230 544 q 200 475 200 391 l 199 376 l 199 354 l 199 311 q 199 210 226 150 q 253 89 288 89 l 297 89 q 312 89 332 104 q 351 120 365 157 q 393 230 393 351 l 393 366 z m 285 707 l 312 707 q 355 707 396 680 q 469 629 496 516 q 513 441 513 371 l 513 338 q 513 264 497 195 q 467 64 393 13 q 350 -17 305 -17 l 287 -17 q 191 -17 133 79 q 108 119 93 186 q 78 252 78 319 l 78 352 q 78 512 138 613 q 165 657 205 682 q 245 707 285 707 z"},"F":{"x_min":0,"x_max":534,"ha":534,"o":"m 175 7 l 163 7 q 124 7 104 16 q 83 24 83 50 l 83 63 l 83 77 q 83 113 91 215 q 99 316 99 388 q 99 460 93 536 q 87 612 87 636 q 87 660 102 669 q 117 678 158 688 q 198 698 366 698 l 435 699 q 476 699 486 692 q 496 686 496 657 q 496 624 454 614 q 411 604 298 604 q 239 604 222 578 q 206 552 206 461 q 206 440 229 433 q 240 429 311 424 q 382 418 406 405 q 431 392 431 348 q 431 318 403 308 q 391 304 357 301 q 324 297 306 293 q 237 279 222 264 q 207 250 207 188 l 212 89 q 212 43 204 25 q 196 7 175 7 z"},"`":{"x_min":0,"x_max":400,"ha":400,"o":"m 241 572 q 212 572 186 595 q 73 695 73 727 q 73 737 103 737 q 110 739 114 739 l 132 740 l 137 740 q 185 740 206 715 q 228 691 254 642 q 281 593 281 585 l 281 583 q 281 573 265 573 l 250 572 z"},"k":{"x_min":0,"x_max":533,"ha":533,"o":"m 491 1 l 476 1 q 398 1 370 31 q 362 39 303 128 q 245 218 237 218 q 217 218 217 121 q 217 70 210 57 q 196 34 145 34 q 93 34 84 56 q 73 86 73 234 l 72 249 q 72 264 72 287 l 72 612 l 71 643 q 71 644 70 672 l 68 700 q 68 716 77 724 q 85 733 121 733 q 176 733 183 703 q 187 686 187 508 q 187 331 202 331 q 217 331 270 392 q 322 453 345 466 q 369 479 417 479 q 464 479 464 467 q 464 458 400 386 q 336 313 336 281 q 336 263 425 138 q 514 13 514 12 q 514 1 491 1 z"},"u":{"x_min":0,"x_max":558,"ha":558,"o":"m 408 19 q 384 19 374 28 q 374 28 367 37 q 360 46 355 46 q 351 46 331 34 q 276 2 227 2 q 191 2 158 20 q 125 37 103 67 q 69 115 69 220 l 68 233 q 68 247 68 256 q 68 266 65 298 l 62 335 q 61 360 59 382 q 58 404 58 410 l 58 468 q 58 503 82 503 q 152 503 168 486 q 183 469 183 340 q 183 210 194 167 q 204 125 220 108 q 236 91 262 91 q 288 91 309 104 q 341 123 353 155 q 372 210 372 338 q 372 466 385 479 q 406 499 471 499 q 497 499 497 455 l 497 374 q 497 356 492 288 q 486 219 486 141 q 486 63 477 46 q 462 19 408 19 z"},"]":{"x_min":0,"x_max":357,"ha":357,"o":"m 113 733 l 132 733 q 194 733 227 720 q 248 711 256 684 q 264 657 264 434 l 264 42 l 265 -8 l 265 -21 q 265 -116 239 -137 q 213 -157 117 -157 l 79 -157 q 53 -157 53 -144 q 53 -103 70 -89 q 78 -83 119 -74 q 160 -65 167 -46 q 174 -27 174 283 q 174 594 167 617 q 161 641 118 649 q 76 658 65 671 q 54 684 54 715 q 54 733 113 733 z"},"U":{"x_min":0,"x_max":671,"ha":671,"o":"m 75 534 l 73 566 q 71 596 71 598 l 68 630 q 67 649 67 661 l 67 676 q 67 699 104 699 q 179 699 190 666 q 199 642 199 438 q 199 235 215 187 q 247 90 336 90 q 426 90 458 176 q 481 239 481 498 q 481 642 498 671 q 514 700 571 700 q 604 700 604 671 l 604 657 q 604 645 603 626 l 598 562 q 598 561 596 529 q 594 498 594 369 q 594 241 582 184 q 570 127 538 83 q 472 -8 329 -8 q 257 -8 204 21 q 99 77 82 226 q 78 260 78 377 q 78 495 75 534 z"},"o":{"x_min":0,"x_max":565,"ha":565,"o":"m 188 239 q 188 173 220 121 q 243 83 283 83 l 287 83 q 322 83 350 127 q 378 170 378 236 l 378 272 q 377 282 377 287 q 377 339 350 381 q 323 423 289 423 l 277 423 q 243 423 216 378 q 189 333 189 279 l 188 269 z m 497 274 l 497 247 q 497 195 480 146 q 448 44 365 2 q 329 -16 289 -16 l 266 -16 q 226 -16 188 4 q 114 42 86 132 q 70 182 70 232 l 70 259 q 70 310 87 361 q 119 463 201 504 q 238 522 286 522 l 294 522 q 389 522 443 448 q 470 413 483 365 q 497 317 497 274 z"},"N":{"x_min":0,"x_max":689,"ha":689,"o":"m 195 477 q 188 477 188 274 q 188 71 176 39 q 165 7 110 7 l 93 7 q 69 7 69 36 l 69 53 q 69 60 71 89 l 74 126 q 78 186 78 222 l 78 262 l 78 423 q 78 644 81 660 q 85 683 123 683 q 161 683 182 672 q 204 661 230 629 q 256 597 371 417 q 485 238 500 238 q 503 238 503 267 l 502 307 q 501 327 501 362 l 501 447 q 501 641 516 668 q 531 696 588 696 q 620 696 620 659 l 620 642 q 620 630 618 605 l 615 568 q 611 500 611 436 l 611 271 q 611 46 607 36 q 601 19 566 19 q 531 19 507 33 q 484 48 457 83 q 429 118 317 298 q 206 477 195 477 z"},"+":{"x_min":0,"x_max":586,"ha":586,"o":"m 270 556 l 304 556 q 332 556 335 545 q 338 534 338 451 q 338 368 342 364 q 345 360 418 360 q 491 360 498 356 q 504 351 504 315 l 504 306 q 504 264 490 259 q 484 256 412 256 q 340 256 338 250 q 338 248 338 160 q 338 73 334 66 q 330 59 307 59 l 273 59 q 253 59 250 71 q 247 83 247 166 q 247 248 244 252 q 241 256 168 256 q 96 256 89 260 q 82 265 82 290 l 82 329 q 82 351 91 355 q 101 360 172 360 q 244 360 246 367 q 247 368 247 451 q 247 533 248 541 q 251 556 270 556 z"},"G":{"x_min":0,"x_max":691,"ha":691,"o":"m 334 3 q 272 4 221 28 q 112 80 73 207 q 55 266 55 347 q 55 428 79 495 q 127 629 248 677 q 307 700 372 700 l 391 700 q 473 700 521 678 q 598 644 598 601 q 598 585 583 568 q 568 551 551 551 q 547 551 487 572 q 427 593 380 593 q 284 593 233 527 q 182 461 182 346 q 182 232 234 167 q 285 103 369 103 q 411 103 439 131 q 468 159 468 190 q 468 221 436 259 q 403 297 403 305 q 403 325 438 338 q 472 352 533 352 q 594 352 613 336 q 632 320 632 270 l 632 254 q 632 183 619 140 q 605 97 575 72 q 544 46 444 17 q 396 3 334 3 z"},"q":{"x_min":0,"x_max":567,"ha":567,"o":"m 361 297 l 360 319 q 360 360 341 390 q 322 419 290 419 l 279 419 q 244 419 216 375 q 188 332 188 265 l 188 235 q 188 178 211 134 q 234 91 265 91 l 278 91 q 312 91 336 125 q 359 159 359 220 q 360 230 360 234 l 361 258 l 361 292 z m 500 -115 l 500 -126 q 500 -179 490 -188 q 472 -203 412 -203 q 390 -203 384 -194 q 377 -185 377 -144 l 380 -58 q 380 17 366 17 q 360 17 347 12 q 308 -4 270 -4 q 229 -4 189 14 q 154 30 126 66 q 71 140 71 256 l 71 282 q 71 437 172 494 q 211 516 248 516 l 258 516 q 284 516 318 499 q 353 481 358 481 q 363 481 376 490 q 390 500 408 500 q 461 500 471 473 q 475 462 475 371 l 477 277 l 478 265 q 478 253 478 242 l 479 207 q 480 184 480 150 q 480 116 490 13 q 500 -89 500 -115 z"},"d":{"x_min":0,"x_max":568,"ha":568,"o":"m 359 310 q 359 358 338 389 q 317 419 283 419 l 279 419 l 276 418 q 242 418 215 377 q 188 335 188 274 l 187 264 l 187 233 q 187 172 211 131 q 234 90 268 90 l 279 90 q 312 90 335 124 q 359 158 359 217 q 360 226 360 230 l 361 254 l 361 282 l 360 287 l 360 296 q 359 305 359 310 z m 412 728 l 433 728 q 479 728 490 712 q 496 704 496 646 l 496 578 q 496 559 485 395 q 475 230 475 180 l 474 168 q 474 156 474 144 l 473 132 q 473 120 473 108 l 472 97 q 472 85 472 73 q 472 30 458 17 q 444 5 412 5 q 379 5 365 21 q 351 36 348 36 q 345 36 328 24 q 311 12 306 9 q 273 -12 239 -12 l 229 -12 q 196 -12 162 6 q 128 24 107 53 q 69 105 69 214 l 69 241 q 69 353 130 436 q 157 474 196 491 q 235 509 263 509 q 292 509 325 503 q 358 498 363 498 q 377 498 377 592 q 377 614 376 636 l 374 680 q 374 728 412 728 z"},"1":{"x_min":0,"x_max":549,"ha":549,"o":"m 362 373 q 362 273 365 245 q 369 218 384 183 q 399 148 399 116 l 399 96 q 399 46 373 10 q 363 -2 320 -2 l 292 -2 q 206 -2 206 104 q 206 146 220 177 q 233 209 240 233 q 246 257 246 365 q 246 474 228 508 q 218 527 186 534 q 155 542 140 551 q 125 560 125 584 q 125 608 142 620 q 159 633 182 643 q 205 653 239 672 q 273 690 292 690 l 309 690 q 342 690 349 661 q 359 616 359 496 q 361 466 361 465 l 362 425 z"},"5":{"x_min":0,"x_max":577,"ha":577,"o":"m 456 698 q 484 698 484 669 q 484 641 472 621 q 460 601 445 595 q 429 590 341 590 q 253 590 231 575 q 209 561 209 496 q 209 469 216 461 q 224 453 267 453 q 311 453 362 431 q 504 373 504 229 q 504 179 487 137 q 452 48 369 15 q 323 -3 277 -3 l 261 -3 q 177 -3 108 26 q 61 47 61 76 q 61 105 85 121 q 97 129 113 129 q 128 129 177 111 q 226 92 260 92 q 317 92 353 130 q 388 167 388 224 q 388 281 349 313 q 310 346 225 346 q 216 346 194 345 l 166 343 q 135 343 115 368 q 96 393 96 423 q 96 490 117 606 q 124 643 137 659 q 150 676 177 682 q 205 688 291 688 l 442 698 z"}}}
